<svg width="203" height="58" viewBox="0 0 203 58" fill="none" xmlns="http://www.w3.org/2000/svg">
<path d="M19.5381 20.7567C21.2346 20.7567 22.7171 21.0929 23.9856 21.7654C25.2541 22.4378 26.2322 23.3854 26.92 24.6081C27.623 25.8154 27.9745 27.2139 27.9745 28.8033C27.9745 30.3775 27.623 31.7759 26.92 32.9986C26.2322 34.2213 25.2464 35.1688 23.9626 35.8413C22.6941 36.5138 21.2193 36.85 19.5381 36.85H13.5088V20.7567H19.5381ZM19.2859 33.4571C20.7684 33.4571 21.9223 33.0521 22.7476 32.2421C23.5729 31.4321 23.9856 30.2858 23.9856 28.8033C23.9856 27.3208 23.5729 26.167 22.7476 25.3417C21.9223 24.5164 20.7684 24.1037 19.2859 24.1037H17.429V33.4571H19.2859ZM42.2238 30.2476C42.2238 30.6144 42.2009 30.9965 42.1551 31.3939H33.2831C33.3442 32.1886 33.5964 32.7999 34.0396 33.2279C34.4981 33.6405 35.056 33.8468 35.7131 33.8468C36.6913 33.8468 37.3714 33.4342 37.7535 32.6089H41.9258C41.7119 33.4495 41.3221 34.206 40.7566 34.8785C40.2064 35.5509 39.511 36.0782 38.6705 36.4603C37.8299 36.8424 36.89 37.0334 35.8507 37.0334C34.5975 37.0334 33.4818 36.7659 32.5036 36.231C31.5255 35.6961 30.7613 34.9319 30.2111 33.9385C29.6609 32.9451 29.3858 31.7836 29.3858 30.4539C29.3858 29.1243 29.6533 27.9627 30.1882 26.9693C30.7384 25.9759 31.5026 25.2117 32.4807 24.6768C33.4588 24.1419 34.5822 23.8745 35.8507 23.8745C37.0886 23.8745 38.189 24.1343 39.1519 24.6539C40.1147 25.1735 40.8636 25.9148 41.3985 26.8776C41.9487 27.8405 42.2238 28.9638 42.2238 30.2476ZM38.212 29.216C38.212 28.5435 37.9827 28.0086 37.5242 27.6112C37.0657 27.2139 36.4926 27.0152 35.8048 27.0152C35.1477 27.0152 34.5898 27.2062 34.1313 27.5883C33.6881 27.9704 33.413 28.5129 33.306 29.216H38.212ZM49.4959 37.0334C48.3802 37.0334 47.3868 36.8424 46.5157 36.4603C45.6445 36.0782 44.9568 35.5586 44.4524 34.9014C43.9481 34.2289 43.6653 33.48 43.6042 32.6547H47.4785C47.5244 33.0979 47.7307 33.4571 48.0975 33.7322C48.4643 34.0073 48.9151 34.1449 49.4501 34.1449C49.9391 34.1449 50.3136 34.0532 50.5734 33.8698C50.8485 33.6711 50.986 33.4189 50.986 33.1132C50.986 32.7464 50.795 32.479 50.4129 32.3109C50.0308 32.1275 49.4118 31.9288 48.556 31.7148C47.639 31.5008 46.8748 31.2792 46.2635 31.05C45.6521 30.8054 45.1249 30.431 44.6817 29.9267C44.2384 29.407 44.0168 28.7116 44.0168 27.8405C44.0168 27.1069 44.2155 26.4421 44.6129 25.846C45.0255 25.2347 45.6216 24.7532 46.401 24.4017C47.1958 24.0502 48.1357 23.8745 49.2208 23.8745C50.8256 23.8745 52.0864 24.2718 53.0034 25.0666C53.9357 25.8613 54.4706 26.9158 54.6082 28.2302H50.986C50.9249 27.787 50.7262 27.4355 50.39 27.1757C50.069 26.9158 49.6411 26.7859 49.1062 26.7859C48.6477 26.7859 48.2962 26.8776 48.0516 27.061C47.8071 27.2291 47.6848 27.466 47.6848 27.7717C47.6848 28.1385 47.8759 28.4136 48.258 28.597C48.6553 28.7804 49.2667 28.9638 50.092 29.1472C51.0395 29.3917 51.8113 29.6363 52.4074 29.8808C53.0034 30.1101 53.5231 30.4921 53.9663 31.0271C54.4248 31.5467 54.6617 32.2497 54.677 33.1362C54.677 33.885 54.463 34.5575 54.0351 35.1536C53.6224 35.7343 53.0187 36.1928 52.224 36.5291C51.4445 36.8653 50.5352 37.0334 49.4959 37.0334ZM59.0469 22.7282C58.3591 22.7282 57.7936 22.5295 57.3504 22.1322C56.9225 21.7195 56.7085 21.2152 56.7085 20.6191C56.7085 20.0078 56.9225 19.5034 57.3504 19.1061C57.7936 18.6934 58.3591 18.4871 59.0469 18.4871C59.7193 18.4871 60.2695 18.6934 60.6975 19.1061C61.1407 19.5034 61.3623 20.0078 61.3623 20.6191C61.3623 21.2152 61.1407 21.7195 60.6975 22.1322C60.2695 22.5295 59.7193 22.7282 59.0469 22.7282ZM60.9955 24.0579V36.85H57.0753V24.0579H60.9955ZM68.6965 23.8745C69.5982 23.8745 70.3853 24.0579 71.0578 24.4247C71.7455 24.7915 72.2728 25.2729 72.6396 25.8689V24.0579H76.5598V36.8271C76.5598 38.0039 76.3229 39.0661 75.8491 40.0137C75.3906 40.9765 74.6799 41.7407 73.7171 42.3062C72.7695 42.8716 71.585 43.1544 70.1637 43.1544C68.2686 43.1544 66.7326 42.7035 65.5558 41.8018C64.3789 40.9154 63.7065 39.708 63.5384 38.1797H67.4127C67.535 38.6687 67.8253 39.0508 68.2838 39.3259C68.7423 39.6163 69.3078 39.7615 69.9803 39.7615C70.7903 39.7615 71.4322 39.5246 71.906 39.0508C72.3951 38.5923 72.6396 37.8511 72.6396 36.8271V35.016C72.2575 35.6121 71.7302 36.1011 71.0578 36.4832C70.3853 36.85 69.5982 37.0334 68.6965 37.0334C67.6419 37.0334 66.6867 36.7659 65.8309 36.231C64.975 35.6808 64.2949 34.909 63.7905 33.9156C63.3015 32.9069 63.0569 31.7454 63.0569 30.431C63.0569 29.1166 63.3015 27.9627 63.7905 26.9693C64.2949 25.9759 64.975 25.2117 65.8309 24.6768C66.6867 24.1419 67.6419 23.8745 68.6965 23.8745ZM72.6396 30.4539C72.6396 29.4758 72.3645 28.704 71.8143 28.1385C71.2794 27.573 70.6222 27.2903 69.8427 27.2903C69.0633 27.2903 68.3985 27.573 67.8483 28.1385C67.3133 28.6887 67.0459 29.4529 67.0459 30.431C67.0459 31.4091 67.3133 32.1886 67.8483 32.7694C68.3985 33.3348 69.0633 33.6176 69.8427 33.6176C70.6222 33.6176 71.2794 33.3348 71.8143 32.7694C72.3645 32.2039 72.6396 31.4321 72.6396 30.4539ZM87.1903 23.9203C88.6881 23.9203 89.8802 24.4094 90.7666 25.3875C91.6684 26.3504 92.1192 27.68 92.1192 29.3765V36.85H88.222V29.9037C88.222 29.0479 88.0004 28.383 87.5571 27.9093C87.1139 27.4355 86.5179 27.1986 85.769 27.1986C85.0201 27.1986 84.4241 27.4355 83.9808 27.9093C83.5376 28.383 83.316 29.0479 83.316 29.9037V36.85H79.3958V24.0579H83.316V25.7543C83.7134 25.1888 84.2483 24.7456 84.9208 24.4247C85.5932 24.0884 86.3498 23.9203 87.1903 23.9203Z" fill="black"/>
<path d="M104.862 34.0073H98.8552L97.8924 36.85H93.7888L99.6117 20.7567H104.151L109.974 36.85H105.824L104.862 34.0073ZM103.853 30.9812L101.858 25.0895L99.8868 30.9812H103.853ZM122.429 25.846C122.139 25.3111 121.718 24.9061 121.168 24.631C120.633 24.3406 119.999 24.1954 119.265 24.1954C117.997 24.1954 116.981 24.6157 116.216 25.4563C115.452 26.2816 115.07 27.3896 115.07 28.7804C115.07 30.2629 115.468 31.4244 116.262 32.265C117.072 33.0903 118.18 33.503 119.586 33.503C120.549 33.503 121.359 33.2584 122.016 32.7694C122.689 32.2803 123.178 31.5773 123.484 30.6603H118.509V27.7717H127.037V31.4168C126.747 32.3949 126.25 33.3043 125.547 34.1449C124.859 34.9854 123.98 35.6655 122.911 36.1852C121.841 36.7048 120.633 36.9646 119.288 36.9646C117.699 36.9646 116.278 36.6208 115.024 35.933C113.786 35.23 112.816 34.2595 112.113 33.0215C111.425 31.7836 111.081 30.3699 111.081 28.7804C111.081 27.1909 111.425 25.7772 112.113 24.5393C112.816 23.286 113.786 22.3156 115.024 21.6278C116.262 20.9248 117.676 20.5733 119.265 20.5733C121.191 20.5733 122.811 21.0394 124.126 21.9717C125.455 22.904 126.334 24.1954 126.762 25.846H122.429ZM133.129 23.8974V27.1527H138.378V30.1788H133.129V33.7093H139.066V36.85H129.208V20.7567H139.066V23.8974H133.129ZM156.008 36.85H152.088L145.531 26.9235V36.85H141.611V20.7567H145.531L152.088 30.729V20.7567H156.008V36.85ZM158.185 28.7804C158.185 27.1909 158.529 25.7772 159.217 24.5393C159.904 23.286 160.86 22.3156 162.082 21.6278C163.32 20.9248 164.719 20.5733 166.277 20.5733C168.188 20.5733 169.823 21.0776 171.183 22.0863C172.544 23.095 173.453 24.4705 173.911 26.2128H169.602C169.281 25.5403 168.822 25.0283 168.226 24.6768C167.645 24.3253 166.981 24.1496 166.232 24.1496C165.024 24.1496 164.046 24.5698 163.297 25.4104C162.548 26.251 162.174 27.3743 162.174 28.7804C162.174 30.1865 162.548 31.3098 163.297 32.1504C164.046 32.991 165.024 33.4113 166.232 33.4113C166.981 33.4113 167.645 33.2355 168.226 32.884C168.822 32.5325 169.281 32.0205 169.602 31.348H173.911C173.453 33.0903 172.544 34.4658 171.183 35.4745C169.823 36.4679 168.188 36.9646 166.277 36.9646C164.719 36.9646 163.32 36.6208 162.082 35.933C160.86 35.23 159.904 34.2595 159.217 33.0215C158.529 31.7836 158.185 30.3699 158.185 28.7804ZM190.113 20.7567L184.542 31.5314V36.85H180.622V31.5314L175.051 20.7567H179.499L182.617 27.4966L185.711 20.7567H190.113Z" fill="#F55F1D"/>
</svg>
